# xmcd CD database file
#
# Track frame offsets:
#	150
#	37306
#	67510
#	98622
#	138504
#	171253
#	208487
#	233997
#	263398
#	294336
#	329298
#
# Disc length: 4785 seconds
#
# Revision: 0
# Processed by: cddbd v1.5.1PL0 Copyright (c) Steve Scherf et al.
# Submitted via: CDex 1.51
#
DISCID=9d12af0b
DTITLE=TSUYOSHI - Psytrance God Is Back
DYEAR=2005
DGENRE=Trance
TTITLE0=Re-Start - DJ TSUYOSHI
TTITLE1=Solar Noir - Electric Universe
TTITLE2=Yuki - Black and White
TTITLE3=Taishido - DJ Tsuyoshi vs I.B.I.S.
TTITLE4=Dune - Shift
TTITLE5=Drugs - Dino Psaras vs Antidote
TTITLE6=Nothing Is Happened - Eskimo
TTITLE7=Chiksuppe - Fortu
TTITLE8=Old But Good - Beat Hackers
TTITLE9=Ripples - Mitsumoto
TTITLE10=Use Your Mind - Exaile
EXTD=YEAR: 2005
EXTT0=
EXTT1=
EXTT2=
EXTT3=
EXTT4=
EXTT5=
EXTT6=
EXTT7=
EXTT8=
EXTT9=
EXTT10=
PLAYORDER=
